<?xml version="1.0" encoding="utf-8"?>
<!-- Generator: Adobe Illustrator 22.1.0, SVG Export Plug-In . SVG Version: 6.00 Build 0)  -->
<svg version="1.1" xmlns="http://www.w3.org/2000/svg" xmlns:xlink="http://www.w3.org/1999/xlink" x="0px" y="0px"
	 viewBox="0 0 405 392" style="enable-background:new 0 0 405 392;" xml:space="preserve">
<style type="text/css">
	.st0{fill:#FE9923;}
	.st1{fill:none;stroke:#231F20;stroke-width:1.1283;}
	.st2{fill:#E9F4F6;}
	.st3{fill:#384344;}
</style>
<g id="BACKGROUND">
</g>
<g id="OBJECTS">
	<g>
		<g>
			<path class="st0" d="M123,243.6V90.7c0-15.2,12.5-27.7,27.7-27.7h132.9c31,0,56.4,25.4,56.4,56.4v152.9
				c0,15.2-12.5,27.7-27.7,27.7H179.4C148.4,300,123,274.6,123,243.6z"/>
			<path class="st1" d="M123,243.6V90.7c0-15.2,12.5-27.7,27.7-27.7h132.9c31,0,56.4,25.4,56.4,56.4v152.9
				c0,15.2-12.5,27.7-27.7,27.7H179.4C148.4,300,123,274.6,123,243.6z"/>
			<path class="st0" d="M123,243.6V90.7c0-15.2,12.5-27.7,27.7-27.7h132.9c31,0,56.4,25.4,56.4,56.4v152.9
				c0,15.2-12.5,27.7-27.7,27.7H179.4C148.4,300,123,274.6,123,243.6z"/>
			<path class="st1" d="M123,243.6V90.7c0-15.2,12.5-27.7,27.7-27.7h132.9c31,0,56.4,25.4,56.4,56.4v152.9
				c0,15.2-12.5,27.7-27.7,27.7H179.4C148.4,300,123,274.6,123,243.6z"/>
			<path class="st0" d="M123,243.6V90.7c0-15.2,12.5-27.7,27.7-27.7h132.9c31,0,56.4,25.4,56.4,56.4v152.9
				c0,15.2-12.5,27.7-27.7,27.7H179.4C148.4,300,123,274.6,123,243.6z"/>
		</g>
	</g>
	<g>
		<g>
			<g>
				
					<ellipse transform="matrix(0.7071 -0.7071 0.7071 0.7071 -97.8288 169.5104)" class="st2" cx="155.7" cy="202.8" rx="30.4" ry="124.8"/>
			</g>
		</g>
		<g>
			<path class="st3" d="M134.2,224.3c-48.7-48.7-78.6-97.9-66.8-109.7c-19.9,19.9-0.4,79.4,48.4,128.1S224,311,244,291.1
				C232.1,303,183,273.1,134.2,224.3z"/>
		</g>
		<g>
			<path class="st3" d="M202.1,158.7H99.3c-1.2,0-2.2-1-2.2-2.2c0-1.2,1-2.2,2.2-2.2h102.7c1.2,0,2.2,1,2.2,2.2
				C204.2,157.7,203.3,158.7,202.1,158.7z"/>
		</g>
		<g>
			<path class="st3" d="M202.1,264.5c-1.2,0-2.2-1-2.2-2.2V156.5c0-1.2,1-2.2,2.2-2.2c1.2,0,2.2,1,2.2,2.2v105.8
				C204.2,263.5,203.3,264.5,202.1,264.5z"/>
		</g>
		<g>
			<path class="st3" d="M202.1,158.7H99.3c-1.2,0-2.2-1-2.2-2.2c0-1.2,1-2.2,2.2-2.2h102.7c1.2,0,2.2,1,2.2,2.2
				C204.2,157.7,203.3,158.7,202.1,158.7z"/>
		</g>
		<g>
			<path class="st3" d="M202.1,158.7c-0.2,0-0.3,0-0.5-0.1L98.8,134.3c-1.2-0.3-1.9-1.4-1.6-2.6c0.3-1.2,1.4-1.9,2.6-1.6l102.7,24.3
				c1.2,0.3,1.9,1.4,1.6,2.6C203.9,158,203,158.7,202.1,158.7z"/>
		</g>
		<g>
			<path class="st3" d="M227,264.5c-1,0-1.9-0.7-2.1-1.7l-25-105.8c-0.3-1.2,0.4-2.3,1.6-2.6c1.2-0.3,2.3,0.4,2.6,1.6l25,105.8
				c0.3,1.2-0.4,2.3-1.6,2.6C227.4,264.5,227.2,264.5,227,264.5z"/>
		</g>
		<g>
			<path class="st3" d="M152,208.7c-0.6,0-1.1-0.2-1.5-0.6c-0.8-0.8-0.8-2.2,0-3.1l50-50c0.8-0.8,2.2-0.8,3.1,0
				c0.8,0.8,0.8,2.2,0,3.1l-50,50C153.2,208.5,152.6,208.7,152,208.7z"/>
		</g>
		<g>
			
				<ellipse transform="matrix(0.7071 -0.7071 0.7071 0.7071 -49.1254 189.6846)" class="st3" cx="204.4" cy="154.1" rx="5.9" ry="12.3"/>
		</g>
		<g>
			<path class="st2" d="M207.1,141l-7.9,7.9c-1.2,1.2,0.2,4.5,3.1,7.3c2.9,2.9,6.2,4.2,7.3,3.1l7.9-7.9L207.1,141z"/>
		</g>
		<g>
			<g>
				<g>
					<path class="st3" d="M217.5,151.4c-1.2,1.2-4.5-0.2-7.3-3.1c-2.9-2.9-4.2-6.2-3.1-7.3c1.2-1.2,4.5,0.2,7.3,3.1
						C217.3,147,218.7,150.2,217.5,151.4z"/>
				</g>
			</g>
		</g>
		<g>
			<path class="st3" d="M153.8,347.8h-13.1c-1,0-1.8-0.7-1.9-1.7l-13.7-100.6c-0.1-1.1,0.7-2.1,1.9-2.1h13.1c1,0,1.8,0.7,1.9,1.7
				l13.7,100.6C155.8,346.9,154.9,347.8,153.8,347.8z"/>
		</g>
		<g>
			<path class="st3" d="M79.5,347.8h13.1c1,0,1.8-0.7,1.9-1.7l39.1-109.8c0.1-1.1-0.7-2.1-1.9-2.1h-13.1c-1,0-1.8,0.7-1.9,1.7
				L77.6,345.7C77.5,346.9,78.4,347.8,79.5,347.8z"/>
		</g>
	</g>
</g>
</svg>
