<?xml version="1.0" encoding="utf-8"?>
<!-- Generator: Adobe Illustrator 22.1.0, SVG Export Plug-In . SVG Version: 6.00 Build 0)  -->
<svg version="1.1" xmlns="http://www.w3.org/2000/svg" xmlns:xlink="http://www.w3.org/1999/xlink" x="0px" y="0px"
	 viewBox="0 0 405 392" style="enable-background:new 0 0 405 392;" xml:space="preserve">
<style type="text/css">
	.st0{fill:#FE9923;}
	.st1{fill:none;stroke:#231F20;stroke-width:1.1283;}
	.st2{fill:url(#SVGID_1_);}
	.st3{fill:url(#SVGID_2_);}
	.st4{clip-path:url(#SVGID_5_);}
	.st5{fill:url(#SVGID_6_);}
	.st6{fill:url(#SVGID_7_);}
	.st7{fill:url(#SVGID_8_);}
	.st8{fill:url(#SVGID_9_);}
	.st9{fill:url(#SVGID_10_);}
	.st10{fill:url(#SVGID_11_);}
	.st11{fill:url(#SVGID_12_);}
	.st12{fill:url(#SVGID_13_);}
	.st13{fill:url(#SVGID_14_);}
	.st14{fill:url(#SVGID_15_);}
	.st15{fill:url(#SVGID_16_);}
	.st16{fill:url(#SVGID_17_);}
	.st17{fill:url(#SVGID_18_);}
	.st18{fill:url(#SVGID_19_);}
	.st19{fill:url(#SVGID_20_);}
	.st20{fill:url(#SVGID_21_);}
	.st21{fill:url(#SVGID_22_);}
	.st22{fill:url(#SVGID_23_);}
	.st23{fill:url(#SVGID_24_);}
	.st24{fill:url(#SVGID_25_);}
	.st25{fill:url(#SVGID_26_);}
	.st26{opacity:0.6;}
	.st27{fill:url(#SVGID_27_);}
	.st28{fill:url(#SVGID_28_);}
	.st29{opacity:0.3;fill:#FFFFFF;}
	.st30{fill:url(#SVGID_29_);}
	.st31{fill:url(#SVGID_30_);}
	.st32{fill:url(#SVGID_31_);}
	.st33{fill:url(#SVGID_32_);}
	.st34{fill:url(#SVGID_33_);}
	.st35{fill:url(#SVGID_34_);}
</style>
<g id="BACKGROUND">
</g>
<g id="OBJECTS">
	<g>
		<g>
			<path class="st0" d="M123,243.6V90.7c0-15.2,12.5-27.7,27.7-27.7h132.9c31,0,56.4,25.4,56.4,56.4v152.9
				c0,15.2-12.5,27.7-27.7,27.7H179.4C148.4,300,123,274.6,123,243.6z"/>
			<path class="st1" d="M123,243.6V90.7c0-15.2,12.5-27.7,27.7-27.7h132.9c31,0,56.4,25.4,56.4,56.4v152.9
				c0,15.2-12.5,27.7-27.7,27.7H179.4C148.4,300,123,274.6,123,243.6z"/>
			<path class="st0" d="M123,243.6V90.7c0-15.2,12.5-27.7,27.7-27.7h132.9c31,0,56.4,25.4,56.4,56.4v152.9
				c0,15.2-12.5,27.7-27.7,27.7H179.4C148.4,300,123,274.6,123,243.6z"/>
			<path class="st1" d="M123,243.6V90.7c0-15.2,12.5-27.7,27.7-27.7h132.9c31,0,56.4,25.4,56.4,56.4v152.9
				c0,15.2-12.5,27.7-27.7,27.7H179.4C148.4,300,123,274.6,123,243.6z"/>
			<path class="st0" d="M123,243.6V90.7c0-15.2,12.5-27.7,27.7-27.7h132.9c31,0,56.4,25.4,56.4,56.4v152.9
				c0,15.2-12.5,27.7-27.7,27.7H179.4C148.4,300,123,274.6,123,243.6z"/>
		</g>
	</g>
	<g>
		<g>
			
				<linearGradient id="SVGID_1_" gradientUnits="userSpaceOnUse" x1="180.9595" y1="295.1028" x2="103.6096" y2="411.7413" gradientTransform="matrix(0.9138 -0.4062 0.4062 0.9138 -79.8766 83.6048)">
				<stop  offset="0" style="stop-color:#444B8C"/>
				<stop  offset="0.9964" style="stop-color:#26264F"/>
			</linearGradient>
			<path class="st2" d="M223.7,342.1l-28.5,12.7c-1.5,0.7-3.4,0-4.1-1.6l-20.7-46.6l34.1-15.1l20.7,46.6
				C226,339.6,225.3,341.4,223.7,342.1z"/>
			
				<linearGradient id="SVGID_2_" gradientUnits="userSpaceOnUse" x1="131.6811" y1="382.094" x2="161.1959" y2="290.4099" gradientTransform="matrix(0.9138 -0.4062 0.4062 0.9138 -79.8766 83.6048)">
				<stop  offset="3.597120e-03" style="stop-color:#E38DDD"/>
				<stop  offset="1" style="stop-color:#9571F6"/>
			</linearGradient>
			<path class="st3" d="M207.7,315.5l-21.4,9.5c-2,0.9-4.3,0-5.1-2l-17.3-38.9l28.5-12.7l17.3,38.9
				C210.6,312.3,209.7,314.6,207.7,315.5z"/>
			<g>
				<defs>
					<path id="SVGID_3_" d="M109.1,132.4l-26.6,15.4c-17.8,10.3-23.9,33-13.6,50.8l47,81.5c10.3,17.8,33,23.9,50.8,13.6l26.6-15.4
						c17.8-10.3,23.9-33,13.6-50.8l-47-81.5C149.6,128.2,126.9,122.1,109.1,132.4z"/>
				</defs>
				
					<linearGradient id="SVGID_4_" gradientUnits="userSpaceOnUse" x1="217.3944" y1="107.8229" x2="99.2407" y2="272.3112" gradientTransform="matrix(0.9138 -0.4062 0.4062 0.9138 -79.8766 83.6048)">
					<stop  offset="3.597120e-03" style="stop-color:#E38DDD"/>
					<stop  offset="1" style="stop-color:#9571F6"/>
				</linearGradient>
				<use xlink:href="#SVGID_3_"  style="overflow:visible;fill:url(#SVGID_4_);"/>
				<clipPath id="SVGID_5_">
					<use xlink:href="#SVGID_3_"  style="overflow:visible;"/>
				</clipPath>
				<g class="st4">
					<g>
						
							<linearGradient id="SVGID_6_" gradientUnits="userSpaceOnUse" x1="-474.8426" y1="359.6295" x2="-536.8351" y2="452.7653" gradientTransform="matrix(1.0617 -0.6122 0.4995 0.8663 495.9768 -449.9753)">
							<stop  offset="0" style="stop-color:#444B8C"/>
							<stop  offset="0.9964" style="stop-color:#26264F"/>
						</linearGradient>
						<path class="st5" d="M196.3,124.9c-16.7,4-33,9.5-48.9,16.2c-2.2,0.9-2.9,3.7-1.5,6.1l0,0c1.4,2.4,4.3,3.5,6.5,2.6
							c15.7-7,31.7-12.9,48-17.7c2.3-0.7,3.2-2.7,2.1-4.6l0,0C201.4,125.4,198.6,124.3,196.3,124.9z"/>
						
							<linearGradient id="SVGID_7_" gradientUnits="userSpaceOnUse" x1="-467.4705" y1="364.5373" x2="-529.4633" y2="457.6736" gradientTransform="matrix(1.0617 -0.6122 0.4995 0.8663 495.9768 -449.9753)">
							<stop  offset="0" style="stop-color:#444B8C"/>
							<stop  offset="0.9964" style="stop-color:#26264F"/>
						</linearGradient>
						<path class="st6" d="M203.5,137.4c-15.9,5.3-31.8,11.7-47.3,18.9c-2.2,1-2.8,3.8-1.4,6.2l0,0c1.4,2.4,4.2,3.5,6.4,2.4
							c15.4-7.6,30.9-14.4,46.4-20.5c2.2-0.8,3-3.1,1.9-5l0,0C208.4,137.7,205.7,136.7,203.5,137.4z"/>
						
							<linearGradient id="SVGID_8_" gradientUnits="userSpaceOnUse" x1="-460.097" y1="369.4459" x2="-522.0902" y2="462.5827" gradientTransform="matrix(1.0617 -0.6122 0.4995 0.8663 495.9768 -449.9753)">
							<stop  offset="0" style="stop-color:#444B8C"/>
							<stop  offset="0.9964" style="stop-color:#26264F"/>
						</linearGradient>
						<path class="st7" d="M210.7,150c-15.2,6.6-30.5,13.8-45.7,21.7c-2.1,1.1-2.7,3.9-1.3,6.3l0,0c1.4,2.4,4.2,3.4,6.3,2.3
							c15-8.1,30-15.9,44.8-23.2c2.1-1,2.8-3.4,1.7-5.3l0,0C215.5,149.9,212.9,149.1,210.7,150z"/>
						
							<linearGradient id="SVGID_9_" gradientUnits="userSpaceOnUse" x1="-452.722" y1="374.3554" x2="-514.7154" y2="467.4925" gradientTransform="matrix(1.0617 -0.6122 0.4995 0.8663 495.9768 -449.9753)">
							<stop  offset="0" style="stop-color:#444B8C"/>
							<stop  offset="0.9964" style="stop-color:#26264F"/>
						</linearGradient>
						<path class="st8" d="M218,162.5c-14.5,7.9-29.2,16-44.1,24.4c-2.1,1.2-2.6,4.1-1.2,6.5l0,0c1.4,2.4,4.2,3.4,6.2,2.2
							c14.7-8.7,29.2-17.4,43.2-26c1.9-1.2,2.6-3.7,1.5-5.6l0,0C222.5,162.1,220,161.4,218,162.5z"/>
						
							<linearGradient id="SVGID_10_" gradientUnits="userSpaceOnUse" x1="-445.3452" y1="379.2661" x2="-507.3388" y2="472.4035" gradientTransform="matrix(1.0617 -0.6122 0.4995 0.8663 495.9768 -449.9753)">
							<stop  offset="0" style="stop-color:#444B8C"/>
							<stop  offset="0.9964" style="stop-color:#26264F"/>
						</linearGradient>
						<path class="st9" d="M225.2,175.1c-13.7,9.1-28,18.2-42.5,27.2c-2,1.2-2.6,4.2-1.2,6.6l0,0c1.4,2.4,4.1,3.3,6.1,2
							c14.4-9.3,28.3-18.9,41.6-28.7c1.8-1.4,2.4-4,1.4-5.9l0,0C229.6,174.3,227.1,173.8,225.2,175.1z"/>
						
							<linearGradient id="SVGID_11_" gradientUnits="userSpaceOnUse" x1="-437.9664" y1="384.1781" x2="-499.9602" y2="477.3159" gradientTransform="matrix(1.0617 -0.6122 0.4995 0.8663 495.9768 -449.9753)">
							<stop  offset="0" style="stop-color:#444B8C"/>
							<stop  offset="0.9964" style="stop-color:#26264F"/>
						</linearGradient>
						<path class="st10" d="M232.5,187.6c-13,10.4-26.7,20.4-41,29.9c-2,1.3-2.5,4.3-1.1,6.7l0,0c1.4,2.4,4.1,3.3,6.1,1.9
							c14.1-9.8,27.5-20.3,40.1-31.5c1.7-1.6,2.3-4.4,1.2-6.3l0,0C236.6,186.6,234.3,186.2,232.5,187.6z"/>
						
							<linearGradient id="SVGID_12_" gradientUnits="userSpaceOnUse" x1="-430.5849" y1="389.0917" x2="-492.5789" y2="482.2297" gradientTransform="matrix(1.0617 -0.6122 0.4995 0.8663 495.9768 -449.9753)">
							<stop  offset="0" style="stop-color:#444B8C"/>
							<stop  offset="0.9964" style="stop-color:#26264F"/>
						</linearGradient>
						<path class="st11" d="M239.7,200.2c-12.3,11.7-25.5,22.6-39.4,32.7c-1.9,1.4-2.4,4.5-1,6.9l0,0c1.4,2.4,4.1,3.2,6,1.8
							c13.7-10.4,26.6-21.8,38.5-34.2c1.6-1.7,2.1-4.7,1-6.6l0,0C243.7,198.8,241.4,198.6,239.7,200.2z"/>
					</g>
					<g>
						
							<linearGradient id="SVGID_13_" gradientUnits="userSpaceOnUse" x1="-514.7916" y1="333.0382" x2="-576.7851" y2="426.1754" gradientTransform="matrix(1.0617 -0.6122 0.4995 0.8663 495.9768 -449.9753)">
							<stop  offset="0" style="stop-color:#444B8C"/>
							<stop  offset="0.9964" style="stop-color:#26264F"/>
						</linearGradient>
						<path class="st12" d="M133.7,147.1c-15.5,7.4-30.5,16-44.7,25.8c-2,1.4-2.4,4.5-1,6.9l0,0c1.4,2.4,4.1,3.3,6.1,2
							c14.3-9.5,29.3-18.2,44.7-25.8c2.1-1.1,2.8-3.9,1.4-6.3l0,0C138.8,147.3,135.9,146.1,133.7,147.1z"/>
						
							<linearGradient id="SVGID_14_" gradientUnits="userSpaceOnUse" x1="-506.4652" y1="338.5812" x2="-568.4587" y2="431.7186" gradientTransform="matrix(1.0617 -0.6122 0.4995 0.8663 495.9768 -449.9753)">
							<stop  offset="0" style="stop-color:#444B8C"/>
							<stop  offset="0.9964" style="stop-color:#26264F"/>
						</linearGradient>
						<path class="st13" d="M142.8,162.9c-15.3,7.8-30.3,16.4-44.7,25.8c-2,1.3-2.5,4.4-1.1,6.8l0,0c1.4,2.4,4.2,3.4,6.2,2.1
							c14.5-9.2,29.5-17.8,44.7-25.8c2.1-1.1,2.7-4,1.3-6.4l0,0C147.8,162.9,144.9,161.8,142.8,162.9z"/>
						
							<linearGradient id="SVGID_15_" gradientUnits="userSpaceOnUse" x1="-498.1387" y1="344.1242" x2="-560.1322" y2="437.2614" gradientTransform="matrix(1.0617 -0.6122 0.4995 0.8663 495.9768 -449.9753)">
							<stop  offset="0" style="stop-color:#444B8C"/>
							<stop  offset="0.9964" style="stop-color:#26264F"/>
						</linearGradient>
						<path class="st14" d="M151.8,178.6c-15.1,8.1-30.1,16.8-44.7,25.8c-2,1.3-2.5,4.3-1.1,6.7l0,0c1.4,2.4,4.2,3.4,6.2,2.2
							c14.7-8.8,29.7-17.5,44.7-25.8c2.1-1.2,2.6-4.1,1.2-6.5l0,0C156.8,178.5,153.9,177.4,151.8,178.6z"/>
						
							<linearGradient id="SVGID_16_" gradientUnits="userSpaceOnUse" x1="-489.8123" y1="349.6672" x2="-551.8057" y2="442.8043" gradientTransform="matrix(1.0617 -0.6122 0.4995 0.8663 495.9768 -449.9753)">
							<stop  offset="0" style="stop-color:#444B8C"/>
							<stop  offset="0.9964" style="stop-color:#26264F"/>
						</linearGradient>
						<path class="st15" d="M160.9,194.3c-14.9,8.5-29.9,17.1-44.7,25.8c-2.1,1.2-2.6,4.2-1.2,6.6c0,0,0,0,0,0
							c1.4,2.4,4.2,3.4,6.3,2.3c14.9-8.5,29.9-17.1,44.7-25.8c2.1-1.2,2.6-4.2,1.2-6.6c0,0,0,0,0,0
							C165.8,194.1,163,193.1,160.9,194.3z"/>
						
							<linearGradient id="SVGID_17_" gradientUnits="userSpaceOnUse" x1="-481.486" y1="355.2101" x2="-543.4795" y2="448.3474" gradientTransform="matrix(1.0617 -0.6122 0.4995 0.8663 495.9768 -449.9753)">
							<stop  offset="0" style="stop-color:#444B8C"/>
							<stop  offset="0.9964" style="stop-color:#26264F"/>
						</linearGradient>
						<path class="st16" d="M169.9,210c-14.7,8.8-29.7,17.5-44.7,25.8c-2.1,1.2-2.6,4.1-1.2,6.5l0,0c1.4,2.4,4.2,3.5,6.4,2.4
							c15.1-8.1,30.1-16.8,44.7-25.8c2-1.3,2.5-4.3,1.1-6.7l0,0C174.8,209.7,172,208.8,169.9,210z"/>
						
							<linearGradient id="SVGID_18_" gradientUnits="userSpaceOnUse" x1="-473.1595" y1="360.753" x2="-535.153" y2="453.8903" gradientTransform="matrix(1.0617 -0.6122 0.4995 0.8663 495.9768 -449.9753)">
							<stop  offset="0" style="stop-color:#444B8C"/>
							<stop  offset="0.9964" style="stop-color:#26264F"/>
						</linearGradient>
						<path class="st17" d="M179,225.7c-14.5,9.2-29.5,17.8-44.7,25.8c-2.1,1.1-2.7,4-1.3,6.4l0,0c1.4,2.4,4.3,3.5,6.4,2.5
							c15.3-7.8,30.3-16.4,44.7-25.8c2-1.3,2.5-4.4,1.1-6.8l0,0C183.8,225.3,181,224.4,179,225.7z"/>
						
							<linearGradient id="SVGID_19_" gradientUnits="userSpaceOnUse" x1="-464.8331" y1="366.2961" x2="-526.8265" y2="459.4333" gradientTransform="matrix(1.0617 -0.6122 0.4995 0.8663 495.9768 -449.9753)">
							<stop  offset="0" style="stop-color:#444B8C"/>
							<stop  offset="0.9964" style="stop-color:#26264F"/>
						</linearGradient>
						<path class="st18" d="M188.1,241.4c-14.3,9.5-29.3,18.2-44.7,25.8c-2.1,1.1-2.8,3.9-1.4,6.3l0,0c1.4,2.4,4.3,3.6,6.5,2.6
							c15.5-7.4,30.5-16,44.7-25.8c2-1.4,2.4-4.5,1-6.9l0,0C192.8,240.9,190.1,240.1,188.1,241.4z"/>
					</g>
					<g>
						
							<linearGradient id="SVGID_20_" gradientUnits="userSpaceOnUse" x1="-549.0397" y1="310.2416" x2="-611.0337" y2="403.3797" gradientTransform="matrix(1.0617 -0.6122 0.4995 0.8663 495.9768 -449.9753)">
							<stop  offset="0" style="stop-color:#444B8C"/>
							<stop  offset="0.9964" style="stop-color:#26264F"/>
						</linearGradient>
						<path class="st19" d="M76.8,181.7c-13.7,10.4-26.6,21.8-38.5,34.2c-1.6,1.7-2.1,4.7-1,6.6l0,0c1.1,1.9,3.3,2.1,5.1,0.5
							c12.3-11.7,25.4-22.6,39.4-32.7c1.9-1.4,2.4-4.5,1-6.9l0,0C81.4,181,78.7,180.2,76.8,181.7z"/>
						
							<linearGradient id="SVGID_21_" gradientUnits="userSpaceOnUse" x1="-541.6583" y1="315.1553" x2="-603.6522" y2="408.2932" gradientTransform="matrix(1.0617 -0.6122 0.4995 0.8663 495.9768 -449.9753)">
							<stop  offset="0" style="stop-color:#444B8C"/>
							<stop  offset="0.9964" style="stop-color:#26264F"/>
						</linearGradient>
						<path class="st20" d="M85.7,197c-14.1,9.8-27.5,20.3-40.1,31.5c-1.7,1.6-2.3,4.4-1.2,6.3l0,0c1.1,1.9,3.4,2.3,5.2,0.8
							c13-10.4,26.7-20.4,41-29.9c2-1.3,2.5-4.3,1.1-6.7l0,0C90.3,196.5,87.6,195.6,85.7,197z"/>
						
							<linearGradient id="SVGID_22_" gradientUnits="userSpaceOnUse" x1="-534.2796" y1="320.0676" x2="-596.2731" y2="413.205" gradientTransform="matrix(1.0617 -0.6122 0.4995 0.8663 495.9768 -449.9753)">
							<stop  offset="0" style="stop-color:#444B8C"/>
							<stop  offset="0.9964" style="stop-color:#26264F"/>
						</linearGradient>
						<path class="st21" d="M94.5,212.3c-14.4,9.3-28.3,18.9-41.6,28.7c-1.8,1.4-2.4,4-1.4,5.9l0,0c1.1,1.9,3.5,2.4,5.4,1.1
							c13.7-9.1,28-18.2,42.5-27.2c2-1.2,2.6-4.2,1.2-6.6c0,0,0,0,0,0C99.2,211.9,96.5,211,94.5,212.3z"/>
						
							<linearGradient id="SVGID_23_" gradientUnits="userSpaceOnUse" x1="-526.9031" y1="324.9787" x2="-588.8965" y2="418.1158" gradientTransform="matrix(1.0617 -0.6122 0.4995 0.8663 495.9768 -449.9753)">
							<stop  offset="0" style="stop-color:#444B8C"/>
							<stop  offset="0.9964" style="stop-color:#26264F"/>
						</linearGradient>
						<path class="st22" d="M103.3,227.6c-14.7,8.7-29.2,17.4-43.2,26c-1.9,1.2-2.6,3.7-1.5,5.6l0,0c1.1,1.9,3.6,2.6,5.6,1.5
							c14.5-7.9,29.2-16,44.1-24.4c2.1-1.2,2.6-4.1,1.2-6.5c0,0,0,0,0,0C108.1,227.4,105.4,226.4,103.3,227.6z"/>
						
							<linearGradient id="SVGID_24_" gradientUnits="userSpaceOnUse" x1="-519.5283" y1="329.8885" x2="-581.5215" y2="423.0254" gradientTransform="matrix(1.0617 -0.6122 0.4995 0.8663 495.9768 -449.9753)">
							<stop  offset="0" style="stop-color:#444B8C"/>
							<stop  offset="0.9964" style="stop-color:#26264F"/>
						</linearGradient>
						<path class="st23" d="M112.1,242.9c-15,8.1-30,15.9-44.8,23.2c-2.1,1-2.8,3.4-1.7,5.3l0,0c1.1,1.9,3.7,2.7,5.8,1.8
							c15.2-6.6,30.5-13.8,45.7-21.7c2.1-1.1,2.7-3.9,1.3-6.3c0,0,0,0,0,0C117.1,242.8,114.2,241.8,112.1,242.9z"/>
						
							<linearGradient id="SVGID_25_" gradientUnits="userSpaceOnUse" x1="-512.1552" y1="334.7975" x2="-574.1481" y2="427.9339" gradientTransform="matrix(1.0617 -0.6122 0.4995 0.8663 495.9768 -449.9753)">
							<stop  offset="0" style="stop-color:#444B8C"/>
							<stop  offset="0.9964" style="stop-color:#26264F"/>
						</linearGradient>
						<path class="st24" d="M121,258.2c-15.4,7.6-30.9,14.4-46.4,20.5c-2.2,0.8-3,3.1-1.9,5l0,0c1.1,1.9,3.8,2.9,6,2.1
							c15.9-5.3,31.8-11.7,47.3-18.9c2.2-1,2.8-3.8,1.4-6.2l0,0C126,258.3,123.1,257.2,121,258.2z"/>
						
							<linearGradient id="SVGID_26_" gradientUnits="userSpaceOnUse" x1="-504.7835" y1="339.7061" x2="-566.7759" y2="432.8418" gradientTransform="matrix(1.0617 -0.6122 0.4995 0.8663 495.9768 -449.9753)">
							<stop  offset="0" style="stop-color:#444B8C"/>
							<stop  offset="0.9964" style="stop-color:#26264F"/>
						</linearGradient>
						<path class="st25" d="M129.8,273.5c-15.7,7-31.7,12.9-48,17.7c-2.3,0.7-3.2,2.7-2.1,4.6l0,0c1.1,1.9,3.9,3,6.2,2.5
							c16.7-4,33-9.5,48.9-16.2c2.2-0.9,2.9-3.7,1.5-6.1l0,0C134.9,273.7,132,272.6,129.8,273.5z"/>
					</g>
				</g>
			</g>
			<g class="st26">
				
					<linearGradient id="SVGID_27_" gradientUnits="userSpaceOnUse" x1="-221.4867" y1="395.3611" x2="-141.3055" y2="395.3611" gradientTransform="matrix(0.8663 -0.4995 0.4995 0.8663 86.6878 -213.8488)">
					<stop  offset="3.597120e-03" style="stop-color:#E38DDD"/>
					<stop  offset="1" style="stop-color:#9571F6"/>
				</linearGradient>
				<path class="st27" d="M151.7,195.9c-17.6-15.1-41.4,0.9-57.2-12.6c-6.4-5.4-11.6-15.8-10.3-36.5l-1.7,1
					c-17.8,10.3-23.9,33-13.6,50.8l47,81.5c10.3,17.8,33,23.9,50.8,13.6l26.6-15.4c3.7-2.1,6.9-4.8,9.6-7.9
					c-18.6-7.6-28-17.7-33.2-26.4C157.8,224.3,165.6,207.9,151.7,195.9z"/>
			</g>
			
				<linearGradient id="SVGID_28_" gradientUnits="userSpaceOnUse" x1="175.2426" y1="286.1638" x2="152.7466" y2="318.7238" gradientTransform="matrix(0.9138 -0.4062 0.4062 0.9138 -79.8766 83.6048)">
				<stop  offset="0" style="stop-color:#444B8C"/>
				<stop  offset="0.9964" style="stop-color:#26264F"/>
			</linearGradient>
			<circle class="st28" cx="190.5" cy="305.7" r="9.8"/>
			<path class="st29" d="M167.4,278.3c-8.7,3.9-19.6-1.1-25.3-11.6l-45.2-82.4c-3-5.4-4.1-11.6-3.3-17.2c0.9-5.7,3.7-10.2,8-12.8
				l21-12.8c0.6-0.3,1.2-0.7,1.8-0.9c8.7-3.9,19.6,1.1,25.3,11.6l45.2,82.4c6.2,11.2,4.1,24.7-4.7,30.1l-21,12.8
				C168.6,277.8,168,278.1,167.4,278.3C167.4,278.3,167.4,278.3,167.4,278.3z"/>
		</g>
		<g>
			<linearGradient id="SVGID_29_" gradientUnits="userSpaceOnUse" x1="254.1615" y1="132.8864" x2="203.4987" y2="236.2477">
				<stop  offset="0" style="stop-color:#444B8C"/>
				<stop  offset="0.9964" style="stop-color:#26264F"/>
			</linearGradient>
			<path class="st30" d="M242,186.6c0,6.6-6.6,14.1-15.2,16.8c-9.2,2.9-17.2-0.8-17.2-8.3c0-7.5,8-15.3,17.2-17.3
				C235.4,176,242,180,242,186.6z"/>
			<linearGradient id="SVGID_30_" gradientUnits="userSpaceOnUse" x1="248.6405" y1="139.2657" x2="206.7549" y2="224.7198">
				<stop  offset="0" style="stop-color:#444B8C"/>
				<stop  offset="0.9964" style="stop-color:#26264F"/>
			</linearGradient>
			<polygon class="st31" points="242,186.6 238,187.7 238,127.1 242,127 			"/>
			<linearGradient id="SVGID_31_" gradientUnits="userSpaceOnUse" x1="242.8221" y1="136.2579" x2="201.3172" y2="220.9355">
				<stop  offset="0" style="stop-color:#444B8C"/>
				<stop  offset="0.9964" style="stop-color:#26264F"/>
			</linearGradient>
			<path class="st32" d="M252.1,142.5c0.3,0.5-2.3-17.9-14-21.6V131C238,131,243,127,252.1,142.5z"/>
		</g>
		<g>
			<linearGradient id="SVGID_32_" gradientUnits="userSpaceOnUse" x1="281.8437" y1="122.6787" x2="248.0538" y2="191.6161">
				<stop  offset="3.597120e-03" style="stop-color:#E38DDD"/>
				<stop  offset="1" style="stop-color:#9571F6"/>
			</linearGradient>
			<path class="st33" d="M273.7,158.5c0,4.4-4.4,9.4-10.2,11.2c-6.2,1.9-11.5-0.5-11.5-5.5s5.3-10.2,11.5-11.5
				C269.3,151.4,273.7,154.1,273.7,158.5z"/>
			<linearGradient id="SVGID_33_" gradientUnits="userSpaceOnUse" x1="278.1614" y1="126.9333" x2="250.2255" y2="183.9275">
				<stop  offset="3.597120e-03" style="stop-color:#E38DDD"/>
				<stop  offset="1" style="stop-color:#9571F6"/>
			</linearGradient>
			<polygon class="st34" points="273.7,158.5 271.1,159.2 271.1,118.8 273.7,118.8 			"/>
			<linearGradient id="SVGID_34_" gradientUnits="userSpaceOnUse" x1="274.2808" y1="124.9273" x2="246.5987" y2="181.4037">
				<stop  offset="3.597120e-03" style="stop-color:#E38DDD"/>
				<stop  offset="1" style="stop-color:#9571F6"/>
			</linearGradient>
			<path class="st35" d="M280.4,129.1c0.2,0.3-1.5-11.9-9.4-14.4v6.8C271.1,121.4,274.4,118.8,280.4,129.1z"/>
		</g>
	</g>
	<g>
		<defs>
			<rect id="SVGID_35_" width="405" height="392"/>
		</defs>
		<clipPath id="SVGID_36_">
			<use xlink:href="#SVGID_35_"  style="overflow:visible;"/>
		</clipPath>
		<g transform="matrix(1 0 0 1 0 0)" style="clip-path:url(#SVGID_36_);">
			
				<image style="overflow:visible;" width="1600" height="1066" xlink:href="0e2d7854-11df-4ca9-8018-211e8ae372e5.jpg"  transform="matrix(0.4831 0 0 0.4831 -188 -35)">
			</image>
		</g>
		<g style="clip-path:url(#SVGID_36_);">
			
				<image style="overflow:visible;" width="1024" height="684" xlink:href="lombok.jpg"  transform="matrix(0.5771 0 0 0.5771 -33 -1)">
			</image>
		</g>
		<g style="clip-path:url(#SVGID_36_);">
			
				<image style="overflow:visible;" width="780" height="480" xlink:href="jawa timur.jpg"  transform="matrix(0.8167 0 0 0.8167 -100.375 0)">
			</image>
		</g>
	</g>
</g>
</svg>
