<?xml version="1.0" encoding="utf-8"?>
<!-- Generator: Adobe Illustrator 22.1.0, SVG Export Plug-In . SVG Version: 6.00 Build 0)  -->
<svg version="1.1" id="OBJECTS" xmlns="http://www.w3.org/2000/svg" xmlns:xlink="http://www.w3.org/1999/xlink" x="0px" y="0px"
	 viewBox="0 0 378.7 369" style="enable-background:new 0 0 378.7 369;" xml:space="preserve">
<style type="text/css">
	.st0{fill:url(#SVGID_1_);}
	.st1{fill:#86D667;}
	.st2{fill:#4ADDA8;}
	.st3{fill:#42CE99;}
	.st4{fill:#32BA8C;}
	.st5{fill:#7ECC5E;}
	.st6{fill:url(#SVGID_2_);}
	.st7{fill:#97E882;}
	.st8{fill:#BBEAE2;}
	.st9{fill:#999898;}
	.st10{fill:#E2D4BC;}
	.st11{fill:#FFD41D;}
	.st12{fill:#FFB600;}
	.st13{fill:#338FE2;}
	.st14{fill:#406984;}
	.st15{fill:#4C7394;}
	.st16{fill:#F4F4F4;}
	.st17{fill:#C6E5F9;}
	.st18{fill:#B5E0F7;}
	.st19{fill:#426B87;}
	.st20{fill:#4FA2FE;}
	.st21{fill:#DCF3FF;}
	.st22{fill:#71BCFF;}
	.st23{fill:#E5E5E5;}
	.st24{fill:#F77C72;}
	.st25{fill:#FCC12D;}
	.st26{fill:#938976;}
	.st27{fill:#FDB02C;}
	.st28{fill:#C6BAA1;}
	.st29{fill:#B2A690;}
	.st30{fill:#4D7F82;}
	.st31{fill:#16B9C1;}
	.st32{fill:#0AA0B1;}
	.st33{fill:#FD8D7F;}
</style>
<g>
	<g>
		<g>
			<g>
				<g>
					<linearGradient id="SVGID_1_" gradientUnits="userSpaceOnUse" x1="0" y1="197.4543" x2="378.6635" y2="197.4543">
						<stop  offset="0" style="stop-color:#F9FFFF"/>
						<stop  offset="0.2251" style="stop-color:#F5FFFF"/>
						<stop  offset="0.4657" style="stop-color:#E8FFFF"/>
						<stop  offset="0.7134" style="stop-color:#D2FFFF"/>
						<stop  offset="0.9647" style="stop-color:#B5FFFF"/>
						<stop  offset="1" style="stop-color:#B0FFFF"/>
					</linearGradient>
					<path class="st0" d="M212.7,55.5c-6.1,2.7-6.1,10.8-2,14.4c8.1,9,14.2,25.2-1,27.9c-55.7,11.7-161.1-6.3-150,67.5
						c4.1,19.8,24.3,44.1,5.1,62.1C41.5,250.8-22.3,273.3,8,305.7c29.4,32.4,79,42.3,124.6,43.2c81.8,1.7,167.3,9.1,246-14.1V54.5
						C324.2,47.6,264.8,33.2,212.7,55.5z"/>
				</g>
				<g>
					<path class="st1" d="M184.9,203.1c-5.8-0.1-13.4,4.8-19.1,6.4c-5.7,1.6-11.5,2.1-17.2,3.5c-5.9,1.5,31.1,5.7,29.7,12.9
						c-1.5,7.9-15.5,3.7-24.4,10.6c-1,0.8-23.2,4.6-23.6,5.9c-1,3.1,3,3.5,2.7,5.7c-0.4,3.5-6.3,3.9-7.6,7.7
						c-1.1,3.3-12.2,1.8-12.5,4.7c-0.3,2.8-3.1,5.8-4.3,8c-2.2,4-0.2,4.1-6.3,5.9c-7.4,2.1-14.7,4-22,6.4c-7.2,2.3-16.8,4-23.3,7.4
						c1.8,1.8,4.9,2.8,7.8,3.3c-0.1,4.1-7.5,4.9-10.1,7.5c8.2,3.1-6.6,7.6-7.9,9.8c-0.1,0.3,1.1,2.8,0.7,3.7c-1.2,2.6-4,4.1-6.4,5.9
						c-2.4,1.8-6.7,3.7-10.9,5.8C46.7,334.2,66,340.6,86,344.4c29.9-20.1,61.1-37.9,90.5-59.1c14.5-10.4,28.9-20.7,43.2-31.5
						c6.4-4.9,20.4-10.2,23.4-17.7L184.9,203.1z"/>
					<path class="st2" d="M378.7,85.1c-0.2-0.5-0.4-0.9-0.6-1.4c-1,2.9-2.9,8.2-6.2,9.6c-1.5,0.6-4.2-0.9-5.6-0.1
						c-0.8,0.5-1.4,2.8-2.1,3.6c-2.2,2.8-3.8,5.2-7.5,5.4c-4.2,0.3-6.2-4.5-9.6-3.6c-0.2,4.9-2.3,4-5.1,1.9
						c-0.8,1.9-1.6,3.7-1.8,5.8c-1.2-1.1-2.5-2.6-3.9-3.6c-0.9,3.4-2.9,16.3-6.5,17.4c-2.3,0.7-5-2.9-6.8-4.1
						c-1.1-0.7-6.9-5.3-7.7-5.3c-2.4-0.1-2.3,1.7-4.4,2.6c-3.4,1.5-3.5-0.6-6.6,3.3c-5.9,7.3-8.8,2.4-16.4,0c-4.1-1.3-7-0.2-11,2.2
						c-4.2,2.5-4.5,5.5-6.9,9.5c-7.3,12.6-24.9,13.5-34.8,23.3c-1.4,1.4-2.1,3.2-3.5,4.7c-2.8,2.9-7.6,4.3-9.6,8
						c-3.2,5.7,1.3,12.2,5.2,16.4c8.9,9.5,24.1,8.8,35.9,9.8c10.2,0.9,22,1.7,32-0.5c3.6-0.8,7.3-1.8,10.2-3.9
						c3.2-2.4,5.2-6.2,9.1-7.7c7.3-2.8,16.5,0.3,24.2-0.6c12-1.4,23-7.8,34.1-12.4c1.9-0.8,3.8-1.4,5.6-2V85.1z"/>
					<path class="st3" d="M378.7,110.7c-1-0.6-2-1-3.2-0.7c-0.2,4.9-2.3,4-5.1,1.9c-0.8,1.9-1.6,3.7-1.8,5.8
						c-1.2-1.1-2.5-2.6-3.9-3.6c-0.9,3.4-2.9,16.3-6.5,17.4c-2.3,0.7-5-2.9-6.8-4.1c-1.1-0.7-6.9-5.3-7.7-5.3
						c-2.4-0.1-2.3,1.7-4.4,2.6c-3.4,1.5-3.5-0.6-6.6,3.3c-5.9,7.3-8.8,2.4-16.4,0c-4.1-1.3-7-0.2-11,2.2c-4.2,2.5-4.5,5.5-6.9,9.5
						c-7.3,12.6-24.9,13.5-34.8,23.3c-1.4,1.4-2.1,3.2-3.5,4.7c-2.8,2.9-7.6,4.3-9.6,8c-3.2,5.7,1.3,12.2,5.2,16.4
						c8.9,9.5,24.1,8.8,35.9,9.8c10.2,0.9,22,1.7,32-0.4c3.6-0.8,7.3-1.8,10.2-3.9c3.2-2.4,5.2-6.2,9.1-7.7
						c7.3-2.8,16.5,0.3,24.2-0.6c3.9-0.4,7.7-1.4,11.4-2.7V110.7z"/>
					<path class="st4" d="M378.7,130.2c-0.4,0.4-0.8,0.8-1.2,1.2c-4.3,3.6-3.6-0.7-7.2-3.6c0.2,3-1.2,7.5-4.8,5.6
						c-2.5,3.9-3.5,3.2-6.3,5.2c-2.7,2-4.1,5.3-7.3,6.9c-3.2,1.6-5.2,1.1-8.2,3.7c-2.6,2.3-6.7,5.8-8.1,8.7c0.8-4-2.6-6.7-3.6-10
						c0.2,2.8,0.1,6.3-1.9,8.4c-2.5,2.8-2.6,1.6-6,1.4c0.1,5.6-6.4,4.6-10.1,7.1c-4.3,3-5.4,6.6-10.8,9.2c-3.3,1.6-6.6,3.4-9.9,5.6
						c-3.7,2.4-10.5,4.8-12.7,8.8c6.4,4.6,18.3,5.4,26,7.4c5,1.3,9.2,3.3,14.3,4.2c11.3,1.8,23.8,0.5,35.2,0.5
						c7.4,0,15.2,0.1,22.5-0.9V130.2z"/>
					<path class="st2" d="M378.7,153.7c-0.3-0.4-0.7-0.7-1-1c-1.6-1.8-1.8-2.8-4.2-3.3c-2.2-0.5-4.7,0.1-6.6,0.8
						c-2.7,1.1-5.3,4.3-8.4,4c-5-0.5-4.9-7-10.6-3.1c-3.6,2.5-5.6,7.1-10,8.6c-2.7,0.9-6,0.3-8.9,0.5c-3.6,0.2-4.4,1.6-6.9,3.8
						c-3.1,2.8-6.6,4.7-10.3,6.4h66.8V153.7z"/>
					<path class="st5" d="M378.7,170.4h-66.8c-5,2.2-10.3,3.7-15.5,5.4c-1.6,0.5-2.9,1.1-4.3,1.8c-1.6,0.8-3.5,1.1-5,2
						c5,6,16.2,7.9,23.5,7.9c4.2,0,8.5-0.2,12.7,0c2.7,0.1-4.4,34.6-1.8,35.1c8.6,1.5,28.2,10.2,36.9,10.2c6.7,0,13.5-13.8,20.2-14
						V170.4z"/>
					<g>
						<g>
							<linearGradient id="SVGID_2_" gradientUnits="userSpaceOnUse" x1="358.2873" y1="127.8839" x2="166.7129" y2="344.7296">
								<stop  offset="0" style="stop-color:#02A9C3"/>
								<stop  offset="0.2723" style="stop-color:#0DB3C4"/>
								<stop  offset="0.7528" style="stop-color:#2BCEC6"/>
								<stop  offset="1" style="stop-color:#3DDEC8"/>
							</linearGradient>
							<path class="st6" d="M338.5,187.8c2.7,4.5,9,8.1,5.4,11.7c-11.7,14.4-31.5,15.3-45.9,27.9c-5.4,4.5,2.7,11.7-2.7,13.5
								c-61.2,19.8-125.1,17.1-182.7,50.4c-22.1,12.6-43.7,26.4-62.8,42.6c25.4,10.5,55,14.4,83,15c40,0.8,80.9,3,121.4,2.3
								c20.1-38.4,61.3-59.5,100.6-78c15.3-6.3-1.8-25.2-9-36c-13.5-19.8,18-18.9,24.3-31.5c4.5-8.1-9.9-9.9-14.4-16.2
								c-1.8-1.8-1.8-6.3,0-8.1c5.8-6.5,15.7-7.8,23.1-12.8v-4c-12.8,6.5-26.5,6.4-38.4,15.9C337.6,182.4,337.6,186,338.5,187.8z"/>
							<g>
								<g>
									<g>
										<path class="st1" d="M378.7,201.6c-3.6,3.9-8.3,7-13.4,9.4c-10.6,7.7-30.9,9.7-19.6,26.3c7.2,10.8,24.3,29.7,9,36
											c-8.8,4.2-17.8,8.4-26.5,13c13.3-4.7,27-8.5,40-13.9c4.2-1.9,7.6-4.9,10.5-8.5V201.6z"/>
									</g>
									<g>
										<path class="st7" d="M368.2,272.4c-13,5.4-26.7,9.2-40,13.9c-30.2,15.8-58.4,35.2-74,64.9c42.4-0.7,84.3-4.6,124.6-16.4
											v-71C375.8,267.5,372.3,270.4,368.2,272.4z"/>
									</g>
								</g>
							</g>
						</g>
					</g>
					<g>
						<path class="st8" d="M139.9,281.1c0,0-38,12.9-15.9,28.5c22.2,15.6,57.5,16.5,79.7,15.9c22.2-0.6,53.5-26.1,75.1-44.4
							c21.6-18.3,42.5-33.6,45.7-37.8c3.2-4.2-1-13.8-14.8-12C295.9,233.1,139.9,281.1,139.9,281.1z"/>
						<g>
							<g>
								
									<rect x="178.4" y="138.6" transform="matrix(0.2861 -0.9582 0.9582 0.2861 3.4946 284.504)" class="st9" width="28.6" height="2.7"/>
							</g>
							<polygon class="st10" points="215.8,116.1 194.8,115.2 193.9,151.3 216.9,149.4 							"/>
							<g>
								<path class="st11" d="M191.8,76.3c0,0,35.6,26,60.3,28.3c24.7,2.3,58.7-5.4,62.8-6.1c4,3.8,1.7,29.2-10.1,35.1
									c-11.5-4.1-50.5-17.5-60.1-17.5c-9.6,0-40.2-3.8-52.8-3.1C178.8,103.1,181.9,76.4,191.8,76.3z"/>
								<path class="st12" d="M314.9,98.5c0,0-4.1-1.4-6.1,10.1c-2,11.5-5.1,14.2-5.9,17.6c-0.8,3.4-1.3,9.1,5,6.9
									c6.3-2.2,8.1-14.1,9.3-19.7C318.4,108,317.3,99.1,314.9,98.5z"/>
								<g>
									<g>
										<g>
											<path class="st11" d="M307.3,130.6c-0.4,0-0.8-0.1-1-0.3c-1.2-0.9-1.2-3.6-0.1-6.4c0.5-1.3,1.2-3.3,1.8-5.3
												c1.8-5.5,3-9.2,4.2-9.3c0.2,0,0.5,0,0.7,0.4c1,1.6,0.1,8.5-2.8,13.1l-0.4-0.2c2.9-4.7,3.6-11.4,2.8-12.7
												c-0.1-0.2-0.2-0.2-0.3-0.2c-1,0.1-2.7,5.3-3.9,9c-0.7,2.1-1.3,4-1.8,5.3c-1,2.5-1.1,5.1-0.1,5.9c0.7,0.5,1.7,0,2.4-0.5
												c3.2-2.3,6.8-15.6,6.2-23.3c-0.2-2.3-0.8-3.7-1.8-4.1c-1.6-0.6-3.7,1.2-3.7,1.2l-0.3-0.3c0.1-0.1,2.3-2.1,4.1-1.3
												c1.2,0.5,1.9,2,2.1,4.5c0.6,8-3,21.3-6.4,23.7C308.4,130.4,307.8,130.6,307.3,130.6z"/>
										</g>
									</g>
								</g>
							</g>
							<g>
								<path class="st13" d="M278.4,274.3l-10.1-2.1l-6.3-23C262.1,249.2,281.6,247.2,278.4,274.3z"/>
								<g>
									<polygon class="st14" points="240.7,297.9 261.8,300.1 263.5,251.1 245.9,253.1 									"/>
									<g>
										<g>
											<path class="st15" d="M273.1,275.5c-0.9,13.6-6,24.7-11.3,24.6c-5.3,0-8.9-11.1-8-24.7c0.9-13.6,6-24.7,11.3-24.6
												C270.5,250.8,274,261.8,273.1,275.5z"/>
											<path class="st16" d="M270.6,275.6c-0.6,8.7-3.8,15.8-7.2,15.8c-3.4,0-5.7-7.1-5.1-15.9c0.6-8.7,3.8-15.8,7.2-15.8
												C268.9,259.8,271.2,266.9,270.6,275.6z"/>
										</g>
									</g>
								</g>
								<path class="st13" d="M323.3,237.2l-8.1-1.9l0.2-12.5C315.4,222.8,328.3,213.5,323.3,237.2z"/>
								<g>
									<polygon class="st14" points="299.9,251.5 313.9,253 315,220.4 303.3,221.7 									"/>
									<g>
										<g>
											<path class="st15" d="M321.4,236.6c-0.6,9.1-4,16.4-7.5,16.4c-3.5,0-5.9-7.4-5.3-16.5c0.6-9.1,4-16.4,7.5-16.4
												C319.7,220.1,322,227.5,321.4,236.6z"/>
											<path class="st16" d="M319.6,236.6c-0.4,5.8-2.6,10.6-4.8,10.6c-2.3,0-3.8-4.8-3.4-10.6c0.4-5.8,2.6-10.6,4.8-10.6
												C318.5,226,320,230.7,319.6,236.6z"/>
										</g>
									</g>
								</g>
								<g>
									<path class="st17" d="M248.7,246.3c25.4-16.7,53.2-24.8,80.1-35.6c-1-16-2.3-36.6-2.8-39c-0.7-4-1.5-6.2-6-7.8
										c-4.5-1.6-17.5-4.9-25.6-6.2c-11.9-1.8-115.9-14.8-135.9,2.2c-10.6,9-24.8,40.4-25.6,45.3c-5.2,30.4-5.2,71.7-5.2,71.7
										s25.5,17.5,47.8,20.6c16.3,2.3,47-1.9,62.3-4.3C233.6,276,232.5,256.5,248.7,246.3z"/>
									<path class="st18" d="M244.8,258.9c4.7-11.3,13.6-20.6,23.8-27.3c11-7.2,23.5-11.3,35.7-15.8c8-2.9,16-6.2,24.3-8.5
										c-1-15.4-2.2-33.4-2.6-35.6c-0.7-4-1.5-6.2-6-7.8c-3-1.1-9.8-2.9-16.4-4.4H238c0,0-13.8,87.4-12.6,135.5
										c6.2-0.8,11.7-1.7,15.6-2.3C240.6,281.3,240.4,269.5,244.8,258.9z"/>
									<path class="st15" d="M155,166.7c-1.1,0-1.6,0.7-3,3.3c-1.5,2.5-8,14.9-11.2,20.9c-3.2,5.9-3.2,8.4-1.5,8.6
										c1.5,0.2,19.1,3.3,27.1,4.7l11.8-36.7C165.7,167.1,155,166.7,155,166.7z"/>
									<path class="st15" d="M216.3,168.4c-4.6,0.1-19.8-0.4-34-0.8l-10.7,36.9c7.7,0.1,25.6,0.6,36.6,1.1
										c12.9,0.6,17.7-0.7,18.7-3c1-2.3,5.3-23.5,6.2-29.6C233.9,167,225.6,168.3,216.3,168.4z"/>
									<polygon class="st19" points="241.1,169.7 236.5,205.8 268.4,200 266.5,169.7 									"/>
									<polygon class="st19" points="290.6,169.7 293.6,195.4 309.7,192.5 305.8,169.7 									"/>
									<polygon class="st19" points="323.1,169.7 307.7,169.7 311.3,192.2 324.9,189.7 									"/>
									<polygon class="st19" points="269.9,169.7 271.8,199.4 291.4,195.8 288.5,169.7 									"/>
									<path class="st20" d="M327.7,193.2c-13.6,3.4-84.5,20.9-97.7,27.1c-14.7,6.8-62.4,24.5-70.4,48.5
										c-5.3-15.8-18.4-44.8-27.7-57.3c-4.2,29.5-4.2,65.3-4.2,65.3s25.5,17.5,47.8,20.6c22.3,3.2,71.5-5.8,71.5-5.8l4.6-3.4
										c-0.8-3.5-1-7.6-0.6-12c1.3-13.6,8.8-24.7,16.6-24.6c6.1,0,9.7,13.4,10.8,22.7l32.8-26.3c-0.3-1.9-0.6-8.2-0.4-10.5
										c0.6-8.1,3.8-14.6,7.2-14.6c3,0,5.1,7.5,5.2,14.3l6.7-5C330,232.2,328.8,209.8,327.7,193.2z"/>
									<path class="st21" d="M234.7,166.5c15.4,0.2,79.8,1.1,90.2,1.2c-0.8-1.6-2.2-2.8-4.9-3.8c-4.5-1.6-17.5-4.9-25.6-6.2
										c-11.9-1.8-115.9-14.8-135.9,2.2c-1.6,1.4-3.3,3.2-5,5.4C167.2,165.5,220.1,166.3,234.7,166.5z"/>
									<g>
										<path class="st22" d="M229.9,220.3L229.9,220.3c-14.7,6.8-62.4,24.5-70.4,48.5c-5.3-15.8-18.4-44.8-27.7-57.3
											c-4.2,29.5-4.2,65.3-4.2,65.3s25.5,17.5,47.8,20.6c12.6,1.8,33.8-0.3,49.9-2.5C224.8,274.1,227.2,245.7,229.9,220.3z"/>
									</g>
								</g>
								<path class="st16" d="M216.7,258.5c0,6.9-5.5,12.6-12.3,12.6c-6.8,0-12.3-5.6-12.3-12.6c0-6.9,5.5-12.5,12.3-12.5
									C211.2,245.9,216.7,251.5,216.7,258.5z"/>
								<path class="st23" d="M207.2,270.3c-6.8,0-12.3-5.6-12.3-12.6c0-5.3,3.3-9.9,7.9-11.7c-6,0.8-10.7,6.1-10.7,12.4
									c0,6.9,5.5,12.6,12.3,12.6c1.6,0,3-0.3,4.4-0.9C208.3,270.2,207.8,270.3,207.2,270.3z"/>
								<path class="st16" d="M136.7,247.2c0,5.3-2.4,9.6-5.4,9.6c-3,0-5.4-4.3-5.4-9.6c0-5.3,2.4-9.6,5.4-9.6
									C134.3,237.6,136.7,241.9,136.7,247.2z"/>
								<path class="st23" d="M128.3,247.2c0-4.6,1.8-8.4,4.2-9.4c-0.4-0.2-0.8-0.3-1.2-0.3c-3,0-5.4,4.3-5.4,9.6
									c0,5.3,2.4,9.6,5.4,9.6c0.4,0,0.8-0.1,1.2-0.3C130.1,255.6,128.3,251.8,128.3,247.2z"/>
								<path class="st21" d="M127.7,264.7c0,0,3.3,11.9,27.2,17.3c21.1,4.8,56.6,10.2,72,7.5c15.5-2.7,25.5-9.3,25.5-9.3
									s0.5,11.1-2.4,14.6c-2.9,3.5-19.3,12.7-49.5,10c-30.2-2.7-57.9-6.8-73.5-21C119.9,277.5,127.7,264.7,127.7,264.7z"/>
							</g>
							<g>
								<polygon class="st24" points="272.2,143.3 279.2,116.9 270.2,115.5 260.6,110.2 253.3,141.2 								"/>
							</g>
							<g>
								<g>
									<polygon class="st25" points="200.5,151.3 202.4,134 256.7,136.5 256.7,153.6 									"/>
									
										<rect x="225.5" y="130.8" transform="matrix(6.432241e-02 -0.9979 0.9979 6.432241e-02 69.0823 361.2986)" class="st26" width="3.5" height="26"/>
									<polygon class="st27" points="273.9,155.2 273.9,142.2 256.7,136.5 256.7,153.6 									"/>
								</g>
								<path class="st28" d="M207.5,134c0,0-0.7,4.8-6,5c0.5-4.4,0.6-5.4,0.6-5.4L207.5,134z"/>
								<path class="st28" d="M200.5,146.3l-0.5,5.1l7.1,0.2C207.2,151.6,206.9,146.3,200.5,146.3z"/>
								<path class="st28" d="M250.8,135.9c0,0,1.4,4.4,5.8,5.2c4-0.4,3.9-3.9,3.9-3.9l-3.9-1.3H250.8z"/>
								<path class="st29" d="M256.7,141.2c4-0.4,3.9-3.9,3.9-3.9l-3.9-1.3V141.2z"/>
								<path class="st28" d="M249.5,153.6l7.1,0.4l4.9,0.1c0,0-1.4-4.3-4.9-4.6C253.1,149.1,250.2,152.1,249.5,153.6z"/>
								<path class="st29" d="M256.7,154l4.9,0.1c0,0-1.4-4.3-4.9-4.6V154z"/>
								<path class="st29" d="M271.6,141.2c0,0,0.4,3,2.5,4.2c0.1-1.6,0-3.4,0-3.4L271.6,141.2z"/>
								<path class="st29" d="M273.9,152.5l0.1,2.7l-2.5-0.2C271.5,155,272,152.9,273.9,152.5z"/>
							</g>
							<g>
								<g>
									<path class="st30" d="M288.5,130.1l-0.8-0.3c0.3-1.1,0.5-2.5,0.1-2.8c-0.9-0.7-5.4-3.6-6.2-3.8c-0.2,0.2-0.8,1.1-1.3,2
										l-0.8-0.4c0.4-0.8,1.2-2.2,1.9-2.4c0.9-0.3,6.9,3.9,7,4C289.3,127.1,288.7,129.4,288.5,130.1z"/>
								</g>
								<g>
									<polygon class="st31" points="265.7,121.2 260.6,154.1 272.8,156.9 279.9,124 									"/>
									<polygon class="st32" points="296.4,132.6 290.6,158.5 272.8,156.9 279.9,124 									"/>
								</g>
							</g>
							<g>
								<path class="st9" d="M287.6,127l-0.1-0.3l-0.2-0.2c-4.5-5.6-28-20.7-46.5-22.8c-11.9-1.8-31.4,8-38.4,11.9l5.4,0.2
									c8.6-4.3,23.4-10.8,32.7-9.4c17.7,2,39.9,16.2,44.6,21.6c6.1,22.5,12,42,12.1,42.2l3-0.1C300.1,169.8,293.7,149.5,287.6,127
									z"/>
							</g>
							<path class="st24" d="M260.6,110.2l-0.6,2.8l10.5,4.5C270.5,117.4,267.7,112.4,260.6,110.2z"/>
							<polygon class="st33" points="214.2,136.5 209.8,106.9 260.6,110.2 253.3,141.2 							"/>
							<g>
								<path class="st9" d="M228.5,139.3l-2.6-0.6c0.5-2.4,4.5-20,7-26.3c5.2-14.1,21-10.7,23.8-10.1c1.8,0.4,4.7,2.7,4.7,2.7
									l-5.1-0.1c-0.7-0.2-16.1-4.7-20.9,8.4C233,119.5,229,136.9,228.5,139.3z"/>
							</g>
							<g>
								<path class="st9" d="M271.8,169.8c-0.2-0.2-19.2-15.4-44.8-31.1c-4.8,1.4-25.1,8.2-43,13.7l-15.8,2.8
									c2.2-0.7,56.3-18.7,58.6-19.3l0.5-0.1l0.5,0.3c25.9,15.9,48.5,33.4,48.8,33.6L271.8,169.8z"/>
							</g>
						</g>
					</g>
				</g>
			</g>
		</g>
	</g>
</g>
</svg>
