<?xml version="1.0" encoding="utf-8"?>
<!-- Generator: Adobe Illustrator 22.1.0, SVG Export Plug-In . SVG Version: 6.00 Build 0)  -->
<svg version="1.1" xmlns="http://www.w3.org/2000/svg" xmlns:xlink="http://www.w3.org/1999/xlink" x="0px" y="0px"
	 viewBox="0 0 405 392" style="enable-background:new 0 0 405 392;" xml:space="preserve">
<style type="text/css">
	.st0{fill:#FE9923;}
	.st1{fill:none;stroke:#231F20;stroke-width:1.1283;}
	.st2{fill:#BFBFBF;}
	.st3{fill:#E2E2E2;}
	.st4{fill:#FFFFFF;}
	.st5{fill:#004559;}
	.st6{opacity:0.5;}
	.st7{fill:none;stroke:#FFFFFF;stroke-width:0.7614;stroke-linecap:round;stroke-linejoin:round;stroke-miterlimit:10;}
</style>
<g id="BACKGROUND">
</g>
<g id="OBJECTS">
	<g>
		<g>
			<path class="st0" d="M94,244.6V91.7C94,76.5,106.5,64,121.7,64h132.9c31,0,56.4,25.4,56.4,56.4v152.9c0,15.2-12.5,27.7-27.7,27.7
				H150.4C119.4,301,94,275.6,94,244.6z"/>
			<path class="st1" d="M94,244.6V91.7C94,76.5,106.5,64,121.7,64h132.9c31,0,56.4,25.4,56.4,56.4v152.9c0,15.2-12.5,27.7-27.7,27.7
				H150.4C119.4,301,94,275.6,94,244.6z"/>
			<path class="st0" d="M94,244.6V91.7C94,76.5,106.5,64,121.7,64h132.9c31,0,56.4,25.4,56.4,56.4v152.9c0,15.2-12.5,27.7-27.7,27.7
				H150.4C119.4,301,94,275.6,94,244.6z"/>
			<path class="st1" d="M94,244.6V91.7C94,76.5,106.5,64,121.7,64h132.9c31,0,56.4,25.4,56.4,56.4v152.9c0,15.2-12.5,27.7-27.7,27.7
				H150.4C119.4,301,94,275.6,94,244.6z"/>
			<path class="st0" d="M94,244.6V91.7C94,76.5,106.5,64,121.7,64h132.9c31,0,56.4,25.4,56.4,56.4v152.9c0,15.2-12.5,27.7-27.7,27.7
				H150.4C119.4,301,94,275.6,94,244.6z"/>
		</g>
		<g>
			<g>
				<polygon class="st2" points="305.4,201.4 190.5,261.8 209.2,257.7 369,222.9 393.2,203.9 				"/>
				<g>
					<polygon class="st3" points="305.4,201.4 291.8,208.5 393.2,203.9 					"/>
				</g>
			</g>
			<g>
				<path class="st4" d="M327.3,203.3c14.8,27.9-43.4,28.4-45.6,24.2C279.6,223.4,313.3,177,327.3,203.3z"/>
				<path class="st3" d="M287.7,229.2c7.5-9.5,20.2-22.9,33.8-32.5c-15.8-9.1-41.6,27.2-39.7,30.8
					C282.1,228.3,284.4,228.9,287.7,229.2z"/>
				<path class="st5" d="M326.1,204.5c3,5.6,3.5,11.3,1,12.6c-2.4,1.3-6.9-2.2-9.9-7.9c-3-5.6-3.5-11.3-1-12.6
					C318.6,195.3,323.1,198.9,326.1,204.5z"/>
			</g>
			<g>
				<path class="st4" d="M394,123.9c-8.9-12.1-38.1,0-39-0.5c-42-26.9-170.5,87.7-231.2,140.2l-68.9-38l-9.9,9.3l28.7,77.4
					l52.6-12.8c0,0,247.6-121.6,264.3-151.7C396.3,137.1,397.6,128.7,394,123.9z"/>
				<path class="st3" d="M394,123.9c-3.1-4.2-8.6-5.5-14.5-5.4c-69.2,34.8-258.5,165.7-258.5,165.7l-30.8,7.6l-42-60l-3.2,3
					l28.7,77.4l52.6-12.8c0,0,247.6-121.6,264.3-151.7C396.3,137.1,397.6,128.7,394,123.9z"/>
			</g>
			<g>
				<g>
					<path class="st5" d="M341.3,118.7c-3.6,1.7-17.5,14.4-15.1,18.3c1.8,2.9,28.9-12.9,29-13.6
						C355.2,122.7,345.2,116.8,341.3,118.7z"/>
				</g>
				<g>
					<path class="st5" d="M285.5,161.5c0.6,2.7-1.2,5.3-3.9,5.9c-2.7,0.6-5.4-1.1-6-3.8c-0.6-2.7,1.2-5.3,3.9-5.9
						C282.3,157.2,285,158.8,285.5,161.5z"/>
				</g>
				<g>
					<path class="st5" d="M262.4,175.3c1.4,2,0.9,4.7-1.1,6.1c-2,1.4-4.8,0.9-6.2-1c-1.4-2-0.9-4.7,1.1-6.1
						C258.3,172.9,261,173.3,262.4,175.3z"/>
				</g>
				<g>
					<path class="st5" d="M240.6,190.2c1.4,2,0.9,4.7-1.1,6.1c-2,1.4-4.8,0.9-6.2-1c-1.4-2-0.9-4.7,1.1-6.1
						C236.5,187.8,239.2,188.3,240.6,190.2z"/>
				</g>
				<g>
					<path class="st5" d="M158.6,250.3c1.2,1.7,0.8,4-0.9,5.2c-1.7,1.2-4.1,0.8-5.3-0.9c-1.2-1.7-0.8-4,0.9-5.2
						C155.1,248.3,157.4,248.7,158.6,250.3z"/>
				</g>
				<g>
					<path class="st5" d="M141.7,261.4c1.2,1.7,0.8,4-0.9,5.2c-1.7,1.2-4.1,0.8-5.3-0.9c-1.2-1.7-0.8-4,0.9-5.2
						C138.1,259.4,140.5,259.7,141.7,261.4z"/>
				</g>
				<g>
					<path class="st5" d="M308.4,147.2c0.7,3.1-1.4,6.2-4.6,6.9c-3.2,0.7-6.4-1.3-7-4.4c-0.7-3.1,1.4-6.2,4.6-6.9
						C304.5,142.1,307.7,144.1,308.4,147.2z"/>
				</g>
			</g>
			<g>
				<polygon class="st2" points="305.4,201.4 28.3,191.5 9,205.9 190.5,261.8 209.2,257.7 				"/>
				<polygon class="st3" points="28.6,191.3 286.8,210.6 305.4,201.4 				"/>
			</g>
			<g>
				<polygon class="st2" points="170.8,275.3 60.6,279 53.6,284.1 118.9,304.2 125.6,302.8 199.3,276.8 210.1,267.2 				"/>
			</g>
			<g class="st6">
				<g>
					<path class="st7" d="M368.9,142.8"/>
				</g>
			</g>
			<g class="st6">
				<g>
					<path class="st7" d="M363.4,167"/>
				</g>
			</g>
			<g>
				<path class="st5" d="M388.8,150.2c-84.3,36.3-265,150.7-269.2,153.9C119.6,304.1,349.9,192.3,388.8,150.2z"/>
			</g>
			<g>
				<path class="st4" d="M227.7,210.1c19.7,37-57.5,37.6-60.5,32.2C164.4,236.8,209.2,175.2,227.7,210.1z"/>
				<path class="st3" d="M175.1,244.4c10-12.7,26.8-30.4,44.8-43.1c-21-12.1-55.2,36.1-52.7,40.9C167.8,243.2,170.8,244,175.1,244.4
					z"/>
				<path class="st5" d="M226.1,211.6c4,7.5,4.6,14.9,1.3,16.7c-3.2,1.7-9.1-2.9-13.1-10.4c-4-7.5-4.6-14.9-1.3-16.7
					C216.2,199.5,222.1,204.2,226.1,211.6z"/>
			</g>
		</g>
	</g>
</g>
</svg>
